<svg width="21" height="21" viewBox="0 0 21 21" fill="none" xmlns="http://www.w3.org/2000/svg">
<path d="M5.88307 0.343622C6.22015 0.537458 6.53879 0.799095 6.94217 1.19562L7.12054 1.37401L8.62691 2.93603C9.40694 3.78719 9.62193 4.60578 9.42252 5.54513L9.37716 5.73465L9.33984 5.86967L9.29841 6.00392L9.09704 6.59474C8.66602 7.91972 8.84597 8.66728 10.3795 10.2004C11.9128 11.7334 12.66 11.9129 13.984 11.4811L14.1457 11.4264L14.4001 11.338L14.7077 11.2381L14.8423 11.2007C15.8625 10.9285 16.7337 11.1169 17.6423 11.9492L17.8132 12.1128L19.0269 13.2852L19.3842 13.6366C19.7803 14.0405 20.0421 14.3606 20.2355 14.6989C20.9744 15.9915 20.5231 17.2055 18.7062 19.0659L18.5063 19.2677L18.3177 19.4589C18.0216 19.7442 17.745 19.9486 17.3386 20.1416C16.6565 20.4655 15.8506 20.5876 14.9142 20.4573C12.6067 20.1364 9.68016 18.3158 5.97188 14.6085C5.77064 14.4073 5.57506 14.2087 5.38507 14.0126L5.10425 13.7205L4.56748 13.1476C-0.374134 7.77872 -0.889131 4.44432 1.04901 2.33247L1.15518 2.2205L1.28872 2.08785L1.36127 2.01204C3.28869 0.0844398 4.54385 -0.426488 5.88307 0.343622ZM3.41171 2.15142L3.25329 2.28448L2.96353 2.54334L2.88684 2.61467L2.80838 2.68868L2.47611 3.01231L2.44617 3.04972L2.22091 3.27603C1.67656 3.83204 1.41871 4.51064 1.6409 5.67767C2.00551 7.59269 3.67442 10.1905 7.0324 13.5477C10.5313 17.0456 13.1972 18.7041 15.1208 18.9716C16.1675 19.1172 16.7355 18.8903 17.2809 18.3735L17.3975 18.2584L17.8424 17.8095C17.9988 17.6458 18.1382 17.4935 18.2616 17.3514L18.3797 17.2126L18.585 16.9539C19.1097 16.2551 19.1576 15.8358 18.9332 15.4433C18.8649 15.3238 18.7718 15.1951 18.6447 15.0459L18.5429 14.93L18.2977 14.671L18.1525 14.5258L16.6213 13.0472C16.1522 12.6146 15.8193 12.5223 15.3581 12.6191L15.229 12.65L15.0757 12.6941L14.4414 12.9094C12.6013 13.5037 11.2738 13.2155 9.31894 11.2612C7.36411 9.30685 7.07535 7.97939 7.66835 6.13844L7.73522 5.93917L7.77874 5.81411L7.89908 5.45153L7.95823 5.22043C8.06314 4.71746 7.94337 4.36677 7.40269 3.82601L7.36739 3.79055L7.32847 3.7512L5.90641 2.28093C5.58062 1.95974 5.34396 1.76394 5.13532 1.64396C4.70094 1.39417 4.23399 1.47885 3.41171 2.15142ZM14.5788 1.40534L14.6629 1.47796L17.132 3.947L19.6022 1.47796C19.8951 1.18507 20.37 1.18507 20.6629 1.47796C20.9292 1.74423 20.9534 2.16089 20.7355 2.4545L20.6629 2.53862L18.193 5.008L20.6629 7.47796C20.9558 7.77086 20.9558 8.24573 20.6629 8.53862C20.3966 8.80489 19.98 8.82909 19.6864 8.61124L19.6022 8.53862L17.132 6.068L14.6629 8.53862C14.37 8.83152 13.8951 8.83152 13.6022 8.53862C13.336 8.27236 13.3118 7.85569 13.5296 7.56208L13.6022 7.47796L16.072 5.008L13.6022 2.53862C13.3094 2.24573 13.3094 1.77086 13.6022 1.47796C13.8685 1.2117 14.2852 1.18749 14.5788 1.40534Z" fill="#0E72BF"/>
</svg>
