<svg width="19" height="20" viewBox="0 0 19 20" fill="none" xmlns="http://www.w3.org/2000/svg">
<path d="M15.5438 20H13.5829C13.2561 20 12.9427 19.8705 12.7124 19.6402C12.4821 19.4099 12.3539 19.0978 12.3563 18.7733V15.7156C12.3563 15.3408 12.2063 14.9813 11.9393 14.7163C11.6723 14.4512 11.3102 14.3023 10.9326 14.3023H8.05844C7.27217 14.3023 6.63478 14.9351 6.63478 15.7156L15.5438 20ZM15.5438 20C16.4596 20.0023 17.3388 19.6428 17.9872 19.0008C18.6356 18.3588 19 17.487 19 16.5778V7.86686C19 7.13246 18.6721 6.43584 18.1046 5.96467L15.5438 20ZM6.13478 15.7156V18.4121L6.11055 18.4201L6.10793 18.7786C6.10504 19.1744 5.77993 19.5 5.37229 19.5H3.45617C1.82008 19.5 0.5 18.1843 0.5 16.5689V7.87307C0.515604 7.28077 0.798233 6.72544 1.27193 6.36093L1.27199 6.361L1.27947 6.35502L7.79785 1.13733L7.80476 1.13179L7.81148 1.12601C8.75484 0.31442 10.1493 0.289218 11.1219 1.06647L11.1234 1.06767L17.7893 6.35275C18.2404 6.72936 18.5 7.28368 18.5 7.86686V16.5778C18.5 17.353 18.1893 18.097 17.6354 18.6455C17.0813 19.1942 16.3293 19.502 15.5451 19.5H15.5438H13.5829C13.3881 19.5 13.2021 19.4228 13.0659 19.2866C12.9299 19.1506 12.8549 18.9671 12.8563 18.777V18.7733V15.7156C12.8563 15.207 12.6527 14.7199 12.2915 14.3614C11.9305 14.003 11.4416 13.8023 10.9326 13.8023H8.05844C6.99947 13.8023 6.13478 14.6555 6.13478 15.7156Z" stroke="#0E72BF"/>
</svg>
